# Blender 3.5.0
# www.blender.org
mtllib C_Right.mtl
o S_Right
v 0.807107 -1.113146 -0.067859
v 0.031101 0.169977 -0.016322
v 0.414696 -1.353728 -0.067859
v 0.041401 -0.167032 -0.016322
v 0.807107 -1.113146 0.372382
v 0.031101 0.169977 0.320845
v 0.414696 -1.353728 0.372382
v 0.041401 -0.167032 0.320845
vn 0.0370 -0.0245 0.9990
vn 0.9539 0.3001 -0.0000
vn 0.0370 -0.0245 -0.9990
vn -0.8557 -0.5175 -0.0000
vn -0.5227 0.8525 -0.0000
vn 0.9995 0.0305 -0.0000
vt 0.824954 0.595310
vt 0.217454 0.313045
vt 0.688199 0.313045
vt 0.824954 0.835364
vt 0.231641 0.552690
vt 0.674011 0.541728
vt 0.757668 0.682208
vt 0.688199 0.376067
vt 0.800897 0.819959
vt 0.674011 0.519762
vt 0.284740 0.846326
vt 0.338647 0.313045
vt 0.567005 0.313045
vt 0.284740 0.606273
vt 0.324459 0.552690
vt 0.581193 0.541728
vt 0.217454 0.759428
vt 0.567005 0.376067
vt 0.260683 0.621677
vt 0.581193 0.519762
s 0
usemtl マテリアル.002
f 1/1/1 2/4/1 4/9/1 3/7/1
f 3/8/2 4/10/2 8/20/2 7/18/2
f 7/17/3 8/19/3 6/14/3 5/11/3
f 5/12/4 6/15/4 2/5/4 1/2/4
f 3/8/5 7/18/5 5/13/5 1/3/5
f 8/20/6 4/10/6 2/6/6 6/16/6
