# Blender 3.5.0
# www.blender.org
mtllib C_Body.mtl
o S_Body
v 0.277709 1.833544 0.277709
v 0.491188 0.179841 0.491188
v -0.277709 1.833544 0.277709
v -0.491188 0.179841 0.491188
v 0.277709 1.833544 -0.277709
v 0.491188 0.179841 -0.491188
v -0.277709 1.833544 -0.277709
v -0.491188 0.179841 -0.491188
vn -0.0000 1.0000 -0.0000
vn -0.9918 0.1280 -0.0000
vn -0.0000 0.1280 -0.9918
vn -0.0000 -1.0000 -0.0000
vn -0.0000 0.1280 0.9918
vn 0.9918 0.1280 -0.0000
vt 0.747451 0.888946
vt 0.134082 0.545716
vt 0.247242 0.259462
vt 0.704085 0.595310
vt 0.163871 0.313045
vt 0.217454 0.026791
vt 0.747451 0.966449
vt 0.134082 0.259462
vt 0.056580 0.545716
vt 0.163871 0.026791
vt 0.704085 0.732390
vt 0.026791 0.313045
vt 0.824954 0.888946
vt 0.437905 0.259462
vt 0.324745 0.259462
vt 0.408116 0.026791
vt 0.567005 0.595310
vt 0.354534 0.026791
vt 0.824954 0.966449
vt 0.056580 0.259462
vt 0.515407 0.259462
vt 0.026791 0.026791
vt 0.545196 0.026791
vt 0.567005 0.732390
s 0
usemtl Material
f 1/1/1 5/13/1 7/19/1 3/7/1
f 4/10/2 3/8/2 7/20/2 8/22/2
f 8/23/3 7/21/3 5/14/3 6/16/3
f 6/17/4 2/4/4 4/11/4 8/24/4
f 2/5/5 1/2/5 3/9/5 4/12/5
f 6/18/6 5/15/6 1/3/6 2/6/6
