# Blender 3.5.0
# www.blender.org
mtllib player.mtl
o Cube
v 0.000000 2.020814 0.000000
v 1.000000 0.020814 1.000000
v -1.000000 0.020814 1.000000
v 1.000000 0.020814 -1.000000
v -1.000000 0.020814 -1.000000
vn -0.8944 0.4472 -0.0000
vn -0.0000 0.4472 -0.8944
vn -0.0000 -1.0000 -0.0000
vn -0.0000 0.4472 0.8944
vn 0.8944 0.4472 -0.0000
vt 0.712858 0.603947
vt 0.222380 0.917351
vt 0.222380 0.603947
vt 0.467619 0.917351
vt 0.977140 0.022860
vt 0.222380 0.336263
vt 0.268099 0.738894
vt 0.712858 0.336263
vt 0.977140 0.241423
vt 0.022859 0.425491
vt 0.022859 0.738894
vt 0.758577 0.022859
vt 0.467619 0.649666
vt 0.513338 0.425491
vt 0.222380 0.649666
vt 0.758577 0.241423
s 0
usemtl Material
f 3/8/1 1/1/1 5/14/1
f 5/15/2 1/2/2 4/11/2
f 4/12/3 2/5/3 3/9/3 5/16/3
f 2/6/4 1/3/4 3/10/4
f 4/13/5 1/4/5 2/7/5
o Cube.001
v 0.000192 -2.013501 0.000000
v -0.994593 -0.010903 1.000000
v 1.005400 -0.016114 1.000000
v -0.994593 -0.010903 -1.000000
v 1.005400 -0.016114 -1.000000
vn 0.8933 -0.4495 -0.0000
vn -0.0012 -0.4472 -0.8944
vn 0.0026 1.0000 -0.0000
vn -0.0012 -0.4472 0.8944
vn -0.8956 -0.4449 -0.0000
vt 0.222380 0.290544
vt 0.467619 0.290544
vt 0.467619 0.603947
vt 0.712858 0.290544
vt 0.731901 0.649666
vt 0.467619 0.336263
vt 0.513338 0.112088
vt 0.222380 0.022859
vt 0.731901 0.868230
vt 0.268099 0.425491
vt 0.268099 0.112088
vt 0.513338 0.649666
vt 0.712858 0.022859
vt 0.022859 0.112088
vt 0.467619 0.022859
vt 0.513338 0.868230
s 0
usemtl Material
f 8/24/6 6/17/6 10/30/6
f 10/31/7 6/18/7 9/27/7
f 9/28/8 7/21/8 8/25/8 10/32/8
f 7/22/9 6/19/9 8/26/9
f 9/29/10 6/20/10 7/23/10
