# Blender 3.5.0
# www.blender.org
mtllib bullet.mtl
o Cube
v 0.000000 -0.002465 1.152381
v 0.622976 -0.625441 -0.617394
v -0.622976 -0.625441 -0.617394
v 0.622976 0.620511 -0.617394
v -0.622976 0.620511 -0.617394
vn -0.9433 -0.0000 0.3320
vn -0.0000 0.9433 0.3320
vn -0.0000 -0.0000 -1.0000
vn -0.0000 -0.9433 0.3320
vn 0.9433 -0.0000 0.3320
vt 0.712858 0.603947
vt 0.222380 0.917351
vt 0.222380 0.603947
vt 0.467619 0.917351
vt 0.977140 0.022860
vt 0.222380 0.336263
vt 0.268099 0.738894
vt 0.712858 0.336263
vt 0.977140 0.241423
vt 0.022859 0.425491
vt 0.022859 0.738894
vt 0.758577 0.022859
vt 0.467619 0.649666
vt 0.513338 0.425491
vt 0.222380 0.649666
vt 0.758577 0.241423
s 0
usemtl Material
f 3/8/1 1/1/1 5/14/1
f 5/15/2 1/2/2 4/11/2
f 4/12/3 2/5/3 3/9/3 5/16/3
f 2/6/4 1/3/4 3/10/4
f 4/13/5 1/4/5 2/7/5
